# xmcd CD database file
#
# Track frame offsets:
#	150
#	38736
#	68102
#	100429
#	130735
#	162364
#	197008
#	224968
#	252676
#	290175
#
# Disc length: 4311 seconds
#
# Revision: 4
# Processed by: cddbd v1.5.1PL2 Copyright (c) Steve Scherf et al.
# Submitted via: CDex 1.60beta1-cs1
#
DISCID=a710d50a
DTITLE=Infected Mushroom - Im The Supervisor
DYEAR=2004
DGENRE=Trance
TTITLE0=IM the Supervisor
TTITLE1=Ratio Shmatio
TTITLE2=Muse Breaks RMX
TTITLE3=Meduzz
TTITLE4=Cities of the Future
TTITLE5=Horus the Chorus
TTITLE6=Frog Machine
TTITLE7=Noon
TTITLE8=Bombat
TTITLE9=Stretched
EXTD=YEAR: 2004
EXTT0=
EXTT1=
EXTT2=
EXTT3=
EXTT4=
EXTT5=
EXTT6=
EXTT7=
EXTT8=
EXTT9=
PLAYORDER=
